<svg version="1.1" width="126" height="88" xmlns="http://www.w3.org/2000/svg" xmlns:xlink="http://www.w3.org/1999/xlink">
  <!-- Exported by Scratch - http://scratch.mit.edu/ -->
  <path id="ID0.5076339528895915" fill="#EBAFB9" stroke="none" stroke-width="5" d="M 227 138.750 L 289.750 138.750 L 289.900 173.200 L 334.600 172.850 L 337.600 167.200 L 343.400 178.100 L 349.400 169.850 L 351.750 173 L 335.100 173 L 335.400 218.200 L 329.500 225.300 L 322.900 217.950 L 315.650 225.100 L 309.400 217.600 L 270.400 217.700 L 264.800 224.950 L 258.600 217.700 L 252.400 224.800 L 246.100 217.600 L 246.400 201.700 L 227 201.500 L 227 138.750 Z " transform="matrix(-1, 0, 0, 1, 352.25, -137.95)"/>
  <path id="ID0.7797466884367168" fill="#4C89BF" stroke="none" d="M 234.250 172 L 267.500 172 L 267.500 172 L 234.250 172 L 234.250 172 Z " transform="matrix(-1, 0, 0, 1, 339.9, -149)"/>
  <path id="ID0.32520823553204536" fill="#090A05" stroke="none" stroke-linecap="round" d="M 230.500 169.250 L 257.800 169.250 L 230.500 196 L 230.500 169.250 Z " transform="matrix(-0.4083419740200043, 0.38703295588493347, 0.38703295588493347, 0.4083419740200043, 109, -149.65)"/>
  <path id="ID0.32520823553204536" fill="#090A05" stroke="none" stroke-linecap="round" d="M 230.500 169.250 L 257.800 169.250 L 230.500 196 L 230.500 169.250 Z " transform="matrix(-0.4083419740200043, 0.38703295588493347, 0.38703295588493347, 0.4083419740200043, 137.35, -149.05)"/>
  <path id="ID0.5080444561317563" fill="#D0231C" stroke="none" d="M 298.850 194.250 L 304.600 194.250 L 304.600 200 L 298.850 200 L 298.850 194.250 Z " transform="matrix(1, 0, 0, 1, -209.75, -147)"/>
  <path id="ID0.5080444561317563" fill="#D0231C" stroke="none" d="M 298.850 194.250 L 304.600 194.250 L 304.600 200 L 298.850 200 L 298.850 194.250 Z " transform="matrix(1, 0, 0, 1, -201.35, -147)"/>
</svg>