<svg version="1.1" width="482" height="363" viewBox="-2 -4 482 363" xmlns="http://www.w3.org/2000/svg" xmlns:xlink="http://www.w3.org/1999/xlink">
  <!-- Exported by Scratch - http://scratch.mit.edu/ -->
  <path id="ID0.2731673317030072" fill="#F5F2E3" stroke="none" d="M 19 11 L 429 11 L 429 250 L 19 250 L 19 11 Z " transform="matrix(1.178048849105835, 0, 0, 1.5311450958251953, -24.25, -20.7)"/>
  <path id="ID0.7266448545269668" fill="#EDC532" stroke="none" d="M 15 242 L 423 242 L 423 335 L 15 335 L 15 242 Z " transform="matrix(1.1763479709625244, 0, 0, 1.3114734888076782, -17.7, -80.15)"/>
  <path id="ID0.07222601026296616" fill="#D0231C" stroke="none" d="M 417.850 42.600 C 425.644 42.600 432.706 45.766 437.820 50.880 C 442.934 55.994 446.100 63.056 446.100 70.850 C 446.100 78.644 442.934 85.706 437.820 90.820 C 432.706 95.934 425.644 99.100 417.850 99.100 C 410.056 99.100 402.994 95.934 397.880 90.820 C 392.766 85.706 389.600 78.644 389.600 70.850 C 389.600 63.056 392.766 55.994 397.880 50.880 C 402.994 45.766 410.056 42.600 417.850 42.600 Z " transform="matrix(1, 0, 0, 1, -8.95, -4.85)"/>
</svg>