<?xml version="1.0" encoding="UTF-8" standalone="no"?>
<!-- Created with Inkscape (http://www.inkscape.org/) -->
<svg id="svg2" xmlns:rdf="http://www.w3.org/1999/02/22-rdf-syntax-ns#" xmlns="http://www.w3.org/2000/svg" height="297mm" width="210mm" version="1.1" xmlns:cc="http://creativecommons.org/ns#" xmlns:dc="http://purl.org/dc/elements/1.1/" viewBox="0 0 744.09448819 1052.3622047">
 <metadata id="metadata7">
  <rdf:RDF>
   <cc:Work rdf:about="">
    <dc:format>image/svg+xml</dc:format>
    <dc:type rdf:resource="http://purl.org/dc/dcmitype/StillImage"/>
    <dc:title/>
   </cc:Work>
  </rdf:RDF>
 </metadata>
 <g id="layer1">
  <g id="g3733" transform="matrix(.38243 0 0 -.35288 20.33 378.36)">
   <g id="g3737" fill-rule="evenodd">
    <g fill="#f6d77e">
     <path id="path3739" d="m329 646v-439h807v439h-807z"/>
     <path id="path3741" d="m339 210v-169h105v169h-105z"/>
     <path id="path3743" d="m478 229v-169h105v169h-105z"/>
     <path id="path3745" d="m877 211v-169h105v169h-105z"/>
     <path id="path3747" d="m1016 230v-169h105v169h-105z"/>
     <path id="path3749" d="m380 281.25-322.69 216.8 123.26 350.78h398.86l123.26-350.78-322.69-216.8z"/>
    </g>
    <g fill="#fff">
     <path id="path3751" d="m401 426 25-53h-50l25 53z"/>
     <path id="path3753" d="m325 444 25-71h-50l25 71z"/>
     <path id="path3755" d="m363 426 25-53h-50l25 53z"/>
     <path id="path3757" d="m437 444 25-71h-50l25 71z"/>
     <path id="path3759" d="m398 469-25 53h50l-25-53z"/>
     <path id="path3761" d="m436 451-25 71h50l-25-71z"/>
     <path id="path3763" d="m360 469-25 53h50l-25-53z"/>
     <path id="path3765" d="m324 451-25 71h50l-25-71z"/>
    </g>
    <g fill="#8e5827">
     <path id="path3767" d="m344 555-25 67h50l-25-67z"/>
     <path id="path3769" d="m261.69 639.81-65.054 29.698 35.355 35.355 29.698-65.054z"/>
     <path id="path3771" d="m495.31 639.81 29.698 65.054 35.355-35.355-65.054-29.698z"/>
     <path id="path3773" d="m381 561-25 61h50l-25-61z"/>
     <path id="path3775" d="m417 555-25 67h50l-25-67z"/>
    </g>
    <g fill="#fbe500">
     <path id="path3777" d="m189 909 75-100h-150l75 100z"/>
     <path id="path3779" d="m327.51 846.9-115.17-48.58 36.288 145.54 78.885-96.964z"/>
     <path id="path3781" d="m205.51 761.9-115.17-48.58 36.288 145.54 78.885-96.964z"/>
     <path id="path3783" d="m655.51 778.9-115.17-48.58 36.288 145.54 78.885-96.964z"/>
     <path id="path3785" d="m1146 680 75-40h-150l75 40z"/>
     <path id="path3787" d="m1221 600-75 40h150l-75-40z"/>
     <path id="path3789" d="m1330 680 75-40h-150l75 40z"/>
     <path id="path3791" d="m1405 600-75 40h150l-75-40z"/>
     <path id="path3793" d="m145.26 683.03-71.469 102.56 149.91-5.24-78.44-97.32z"/>
     <path id="path3795" d="m440.3 842.86-124.81 6.8254 96.418 114.91 28.395-121.73z"/>
     <path id="path3797" d="m393.97 866.26-102.56-71.47 5.24 149.91 97.32-78.44z"/>
     <path id="path3799" d="m343.03 890.73 124.04-15.51-104.2-107.9-19.84 123.41z"/>
     <path id="path3801" d="m573.25 791.28-95.573 80.566 146.16 33.743-50.583-114.31z"/>
     <path id="path3803" d="m465.94 844.22 75.453 99.658 41.346-144.19-116.8 44.531z"/>
     <path id="path3805" d="m527.24 859.32-111.5-56.5 26.04 147.72 85.46-91.22z"/>
    </g>
   </g>
  </g>
 </g>
</svg>
