<?xml version="1.0" encoding="UTF-8" standalone="no"?>
<!-- Created with Inkscape (http://www.inkscape.org/) -->
<svg id="svg2" xmlns:rdf="http://www.w3.org/1999/02/22-rdf-syntax-ns#" xmlns="http://www.w3.org/2000/svg" height="297mm" width="210mm" version="1.1" xmlns:cc="http://creativecommons.org/ns#" xmlns:dc="http://purl.org/dc/elements/1.1/" viewBox="0 0 744.09448819 1052.3622047">
 <metadata id="metadata7">
  <rdf:RDF>
   <cc:Work rdf:about="">
    <dc:format>image/svg+xml</dc:format>
    <dc:type rdf:resource="http://purl.org/dc/dcmitype/StillImage"/>
    <dc:title/>
   </cc:Work>
  </rdf:RDF>
 </metadata>
 <g id="layer1">
  <g id="g3890" transform="matrix(1.25 0 0 -1.25 14.436 280.25)">
   <g id="g3894" fill="#ddf1ff" fill-rule="evenodd">
    <path id="path3896" d="m246.47 43.57-68.888 38.185 15.029 77.316 78.176 9.5988 33.287-71.384-57.604-53.716z"/>
    <path id="path3898" d="m226.91 41.798-75.712-21.71-44.044 65.298 48.492 62.066 74.013-26.939-2.7489-78.715z"/>
    <path id="path3900" d="m171.8 101.91-38.18-68.893-77.32 15.029-9.599 78.174l71.384 33.287 53.716-57.604z"/>
    <path id="path3902" d="m93.72 73.175-68.888 38.185 15.029 77.32 78.179 9.6 33.28-71.39-57.6-53.715z"/>
    <path id="path3904" d="m235.81 179.79 1.3746-78.751-74.472-25.643-47.401 62.903 45.177 64.519 75.322-23.028z"/>
   </g>
  </g>
 </g>
</svg>
