<?xml version="1.0" encoding="UTF-8" standalone="no"?>
<!-- Created with Inkscape (http://www.inkscape.org/) -->
<svg id="svg2" xmlns:rdf="http://www.w3.org/1999/02/22-rdf-syntax-ns#" xmlns="http://www.w3.org/2000/svg" height="297mm" width="210mm" version="1.1" xmlns:cc="http://creativecommons.org/ns#" xmlns:dc="http://purl.org/dc/elements/1.1/" viewBox="0 0 744.09448819 1052.3622047">
 <metadata id="metadata7">
  <rdf:RDF>
   <cc:Work rdf:about="">
    <dc:format>image/svg+xml</dc:format>
    <dc:type rdf:resource="http://purl.org/dc/dcmitype/StillImage"/>
    <dc:title/>
   </cc:Work>
  </rdf:RDF>
 </metadata>
 <g id="layer1">
  <g id="g3398" transform="matrix(1.25 0 0 -1.25 37.465 360.79)">
   <g id="g3402" fill-rule="evenodd">
    <g fill="#a06a31">
     <path id="path3404" d="m66.232 56.143-47.572 29.137 22.508 38.44 61.482-5.38 15.49-41.763-51.908-20.434z"/>
     <path id="path3406" d="m360.25 112.53-7.5318-11.524-73.956-13.195 19.879 69.325 61.609-44.606z"/>
     <path id="path3408" d="m267.37 31.072-65.753 51.109 68.866 32.113-3.1134-83.222z"/>
     <path id="path3410" d="m108.57 31.845-5.75 84.445 74.13-34.563-68.38-49.882z"/>
    </g>
    <g fill="#3e7300">
     <path id="path3412" d="m100.37 193.33 73.53-28.23-4.12-78.656-76.081-20.385-42.897 66.061 49.568 61.21z"/>
     <path id="path3414" d="m119.49 201.8 71.954 32.036 52.703-58.532-39.382-68.211-77.042 16.376-8.233 78.332z"/>
     <path id="path3416" d="m178.97 162.81 35.758 70.179 77.794-12.321 12.321-77.794-70.178-35.758-55.694 55.694z"/>
     <path id="path3418" d="m250.17 188.51 75.712-21.71 2.7488-78.715-74.013-26.939-48.492 62.066 44.044 65.298z"/>
     <path id="path3420" d="m141.88 63.918-12.321 77.794 70.179 35.758 55.694-55.694-35.758-70.179-77.794 12.321z"/>
    </g>
    <path id="path3422" d="m33.126 94.096 10.528 17.784 10.14-17.559-20.668-0.225z" fill="#47392c"/>
   </g>
  </g>
 </g>
</svg>
